<svg xmlns="http://www.w3.org/2000/svg" xmlns:xlink="http://www.w3.org/1999/xlink" width="1223" height="358" viewBox="0 0 1223 358">
  <defs>
    <clipPath id="clip-path">
      <rect id="Rectangle_176076" data-name="Rectangle 176076" width="1223" height="358" transform="translate(4619 222)" fill="#fff" stroke="#707070" stroke-width="1"/>
    </clipPath>
    <linearGradient id="linear-gradient" x1="0.5" x2="0.452" y2="0.681" gradientUnits="objectBoundingBox">
      <stop offset="0" stop-color="#4ad8fd"/>
      <stop offset="1" stop-color="#0d43f9"/>
    </linearGradient>
    <linearGradient id="linear-gradient-2" x1="0.721" y1="0.039" x2="0.028" y2="0.932" gradientUnits="objectBoundingBox">
      <stop offset="0" stop-color="#26dcfd"/>
      <stop offset="1" stop-color="#0e45fb"/>
    </linearGradient>
    <linearGradient id="linear-gradient-3" x1="0.42" y1="-0.075" x2="0.842" y2="0.818" gradientUnits="objectBoundingBox">
      <stop offset="0" stop-color="#4ad8fd"/>
      <stop offset="1" stop-color="#0f50fb"/>
    </linearGradient>
    <clipPath id="clip-path-2">
      <rect id="Rectangle_175820" data-name="Rectangle 175820" width="714.747" height="68.585" fill="#fff"/>
    </clipPath>
  </defs>
  <g id="Mask_Group_2611" data-name="Mask Group 2611" transform="translate(-4619 -222)" clip-path="url(#clip-path)">
    <g id="Group_363216" data-name="Group 363216" transform="translate(4496.724 -1867.828)">
      <g id="Group_362842" data-name="Group 362842" transform="translate(244.276 2160.305)">
        <g id="Group_310773" data-name="Group 310773" transform="translate(24.392 14.404)">
          <path id="Path_48950" data-name="Path 48950" d="M5.208,41.588,41.587,5.209A17.783,17.783,0,0,1,66.737,30.358L30.357,66.737A17.783,17.783,0,0,1,5.208,41.588" transform="translate(83.793 75.186)" fill="url(#linear-gradient)"/>
          <rect id="Rectangle_23315" data-name="Rectangle 23315" width="105.564" height="35.566" rx="17.783" transform="translate(14.785 129.349) rotate(-45)" fill="url(#linear-gradient-2)"/>
          <rect id="Rectangle_23316" data-name="Rectangle 23316" width="115.544" height="35.566" rx="17.783" transform="translate(0 81.702) rotate(-45)" fill="url(#linear-gradient-3)"/>
        </g>
        <path id="Ellipse_5731" data-name="Ellipse 5731" d="M102.261,1.748a100.036,100.036,0,0,0-56.2,17.165A100.812,100.812,0,0,0,9.646,63.138a100.379,100.379,0,0,0,9.267,95.32,100.811,100.811,0,0,0,44.224,36.418,100.379,100.379,0,0,0,95.32-9.267,100.811,100.811,0,0,0,36.418-44.225,100.379,100.379,0,0,0-9.267-95.32A100.812,100.812,0,0,0,141.385,9.646a99.882,99.882,0,0,0-39.124-7.9m0-1.748A102.261,102.261,0,1,1,0,102.261,102.261,102.261,0,0,1,102.261,0Z" fill="#fff"/>
      </g>
      <g id="Group_362997" data-name="Group 362997" transform="translate(508.487 2228.274)">
        <path id="Path_422515" data-name="Path 422515" d="M0,.793V66.565H46.5V54.708H14.081V39.423h30.57V27.75H14.081v-15.1H45.762V.793Z" transform="translate(0 0.594)" fill="#fff"/>
        <path id="Path_422516" data-name="Path 422516" d="M114.9.794V46.186L88.781.794H73.224V66.564H87.3V22.748l25.932,43.817h15.748V.794Z" transform="translate(54.776 0.595)" fill="#fff"/>
        <g id="Group_362989" data-name="Group 362989" transform="translate(0 0)">
          <g id="Group_362988" data-name="Group 362988" clip-path="url(#clip-path-2)">
            <path id="Path_422517" data-name="Path 422517" d="M122.88,66.566V.794H146.5q11.023,0,17.131,5.281a18.314,18.314,0,0,1,6.118,14.636A20.6,20.6,0,0,1,166.971,31.6a17.839,17.839,0,0,1-7.966,6.992A29.551,29.551,0,0,1,146.5,41H130.844V66.566Zm7.966-33.349H146.5q7.407,0,11.161-3.147a11.52,11.52,0,0,0,3.753-9.356,11.024,11.024,0,0,0-3.75-9.083q-3.752-3.057-11.161-3.057H130.849Z" transform="translate(91.921 0.595)" fill="#fff"/>
            <path id="Path_422518" data-name="Path 422518" d="M153.865,66.57V.8h24.913a27.333,27.333,0,0,1,11.948,2.409,17.912,17.912,0,0,1,7.737,6.9A20.053,20.053,0,0,1,201.2,20.715a15.082,15.082,0,0,1-2.087,7.92,16.274,16.274,0,0,1-5.325,5.512,13.943,13.943,0,0,1-6.765,2.224l-.554-.834a14.793,14.793,0,0,1,9.494,2.779,12.233,12.233,0,0,1,4.031,8.892l1.853,19.361h-8.059l-1.668-18.529a8.078,8.078,0,0,0-2.919-6.022,13.825,13.825,0,0,0-8.289-1.946H161.833v26.5Zm7.968-34.276H179.8a14.052,14.052,0,0,0,9.539-3.057,10.915,10.915,0,0,0,3.522-8.707,11.027,11.027,0,0,0-3.613-8.847,15.641,15.641,0,0,0-10.474-3.1H161.822Z" transform="translate(115.1 0.591)" fill="#fff"/>
            <path id="Path_422519" data-name="Path 422519" d="M246.194,66.564V8.574H225.721V.794h48.912V8.574H254.16v57.99Z" transform="translate(168.852 0.595)" fill="#fff"/>
            <path id="Path_422520" data-name="Path 422520" d="M385.512,66.564V.794h7.966V62.859l-3.986-4.075h36.87v7.781Z" transform="translate(288.385 0.595)" fill="#fff"/>
            <path id="Path_422521" data-name="Path 422521" d="M64.183,68.07A33.83,33.83,0,1,1,98.011,34.238v0A33.866,33.866,0,0,1,64.183,68.07m0-55.307A21.478,21.478,0,1,0,85.668,34.242,21.478,21.478,0,0,0,64.183,12.764" transform="translate(22.704 0.307)" fill="#fff"/>
            <path id="Path_422522" data-name="Path 422522" d="M374.5,67.794A33.738,33.738,0,1,1,408.24,34.057,33.738,33.738,0,0,1,374.5,67.794m0-60.691a26.948,26.948,0,1,0,26.95,26.948A26.948,26.948,0,0,0,374.5,7.1" transform="translate(254.912 0.239)" fill="#fff"/>
            <path id="Path_422523" data-name="Path 422523" d="M364.695,43.013a33.634,33.634,0,1,1,.021-18.69h-.411c-2.117,0-4.234-.007-6.352.007a.514.514,0,0,1-.568-.379A26.664,26.664,0,0,0,342.451,8.812a24.838,24.838,0,0,0-7.3-1.8,26.169,26.169,0,0,0-19.694,5.9,25.554,25.554,0,0,0-9.424,16.147,26.12,26.12,0,0,0,8.02,24.1,25.139,25.139,0,0,0,14.177,6.95,26.313,26.313,0,0,0,22.746-7.141A25.862,25.862,0,0,0,357.4,43.34a.464.464,0,0,1,.5-.364c2.145.012,4.29.005,6.435.007.117,0,.236.019.358.03" transform="translate(223.483 0)" fill="#fff"/>
            <path id="Path_422524" data-name="Path 422524" d="M289.7.173a33.91,33.91,0,0,1,33.946,34.064c.114,18.9-15.7,33.744-33.972,33.724A33.894,33.894,0,1,1,289.7.173M262.874,31.43H316.5a26.937,26.937,0,0,0-53.623,0" transform="translate(191.343 0.13)" fill="#fff"/>
            <path id="Path_422525" data-name="Path 422525" d="M218.957,68.243a33.91,33.91,0,0,1-33.945-34.064C184.9,15.279,200.711.434,218.983.455a33.894,33.894,0,1,1-.026,67.788m26.824-31.257H192.157a26.937,26.937,0,0,0,53.623,0" transform="translate(138.399 0.341)" fill="#fff"/>
          </g>
        </g>
      </g>
    </g>
  </g>
</svg>
