<svg xmlns="http://www.w3.org/2000/svg" xmlns:xlink="http://www.w3.org/1999/xlink" width="115" height="115" viewBox="0 0 115 115">
  <defs>
    <clipPath id="clip-path">
      <rect id="Rectangle_176024" data-name="Rectangle 176024" width="115" height="115" transform="translate(4177 5986)" fill="#fff"/>
    </clipPath>
    <clipPath id="clip-path-2">
      <rect id="Rectangle_151017" data-name="Rectangle 151017" width="34.543" height="69.085" fill="#4ad8fd"/>
    </clipPath>
  </defs>
  <g id="Mask_Group_2597" data-name="Mask Group 2597" transform="translate(-4177 -5986)" clip-path="url(#clip-path)">
    <g id="Group_363133" data-name="Group 363133" transform="translate(2941.207 2856.225)">
      <g id="Group_310781" data-name="Group 310781" transform="translate(1260.213 3152.891)">
        <g id="Group_310780" data-name="Group 310780" clip-path="url(#clip-path-2)">
          <path id="Path_381014" data-name="Path 381014" d="M34.543,69.085A34.543,34.543,0,0,1,34.543,0" fill="#4ad8fd"/>
        </g>
      </g>
      <g id="Group_310779" data-name="Group 310779" transform="translate(1259 3152.602)">
        <g id="Group_310782" data-name="Group 310782" transform="translate(0 0)">
          <path id="Ellipse_5733" data-name="Ellipse 5733" d="M33.688-1a34.7,34.7,0,0,1,13.5,66.649,34.7,34.7,0,0,1-27-63.922A34.471,34.471,0,0,1,33.688-1Zm0,66.9A32.219,32.219,0,0,0,46.225,4.008,32.218,32.218,0,0,0,21.15,63.367,32.007,32.007,0,0,0,33.688,65.9Z" transform="translate(1 1)"/>
          <path id="Path_381014-2" data-name="Path 381014" d="M15.556,26.912l-2.474-.138a61.025,61.025,0,0,1,1.2-9.151l2.425.51A58.541,58.541,0,0,0,15.556,26.912Z" transform="translate(3.125 4.209)"/>
          <path id="Path_381015" data-name="Path 381015" d="M31.016,69.375c-3.24,0-6.413-1.533-9.176-4.433a31.179,31.179,0,0,1-6.389-11.186l2.339-.816a28.726,28.726,0,0,0,5.843,10.293c2.317,2.432,4.8,3.664,7.382,3.664a9.4,9.4,0,0,0,5.968-2.349,21.252,21.252,0,0,0,5.2-6.778,42.036,42.036,0,0,0,3.606-10.327A59.682,59.682,0,0,0,47.12,34.688a59.679,59.679,0,0,0-1.334-12.755A42.038,42.038,0,0,0,42.18,11.606a21.254,21.254,0,0,0-5.2-6.778,9.4,9.4,0,0,0-5.968-2.35c-2.6,0-5.1,1.252-7.436,3.721a29.026,29.026,0,0,0-5.862,10.439l-2.343-.805A31.479,31.479,0,0,1,21.778,4.5C24.557,1.555,27.751,0,31.016,0A11.8,11.8,0,0,1,38.55,2.907a23.683,23.683,0,0,1,5.83,7.558c3.365,6.49,5.218,15.092,5.218,24.222S47.745,52.42,44.38,58.91a23.681,23.681,0,0,1-5.83,7.558A11.8,11.8,0,0,1,31.016,69.375Z" transform="translate(3.672 0)"/>
          <path id="Path_381016" data-name="Path 381016" d="M14.246,40a61.077,61.077,0,0,1-1.159-8.922l2.474-.141A58.593,58.593,0,0,0,16.672,39.5Z" transform="translate(3.126 7.389)"/>
          <path id="Path_381017" data-name="Path 381017" d="M30.818,50.032c-8.3-.486-15.982-2.547-21.629-5.8C3.263,40.811,0,36.313,0,31.563c0-4.767,3.283-9.277,9.244-12.7,5.684-3.262,13.406-5.315,21.744-5.781l.138,2.474c-7.96.445-15.293,2.382-20.649,5.456-5.159,2.961-8,6.707-8,10.549S5.3,39.126,10.426,42.082c5.32,3.067,12.613,5.012,20.537,5.477Z" transform="translate(0 3.125)"/>
          <path id="Path_381018" data-name="Path 381018" d="M39.375,16.648A59.18,59.18,0,0,0,31,15.562l.147-2.473a61.667,61.667,0,0,1,8.725,1.132Z" transform="translate(7.404 3.126)"/>
          <path id="Path_381019" data-name="Path 381019" d="M43.453,46.606l-.81-2.341a28.9,28.9,0,0,0,10.374-5.854c2.452-2.325,3.7-4.818,3.7-7.411s-1.232-5.063-3.661-7.38a28.706,28.706,0,0,0-10.282-5.844l.817-2.339a31.158,31.158,0,0,1,11.174,6.39c2.9,2.763,4.429,5.935,4.429,9.173,0,3.253-1.545,6.437-4.469,9.209A31.358,31.358,0,0,1,43.453,46.606Z" transform="translate(10.185 3.687)"/>
          <path id="Path_381020" data-name="Path 381020" d="M31.215,43.592l-.147-2.473a58.547,58.547,0,0,0,8.354-1.091l.5,2.426A61.033,61.033,0,0,1,31.215,43.592Z" transform="translate(7.42 9.56)"/>
          <path id="Line_5817" data-name="Line 5817" d="M1.478,66.9H-1V0H1.478Z" transform="translate(34.449 1.239)"/>
          <path id="Line_5818" data-name="Line 5818" d="M29.732,1.478H0V-1H29.732Z" transform="translate(1.239 34.449)"/>
          <path id="Line_5819" data-name="Line 5819" d="M9.833,1.478H0V-1H9.833Z" transform="translate(38.482 34.449)"/>
          <path id="Line_5820" data-name="Line 5820" d="M12.388,1.478H0V-1H12.388Z" transform="translate(55.748 34.449)"/>
        </g>
      </g>
    </g>
  </g>
</svg>
