<svg xmlns="http://www.w3.org/2000/svg" xmlns:xlink="http://www.w3.org/1999/xlink" width="115" height="115" viewBox="0 0 115 115">
  <defs>
    <clipPath id="clip-path">
      <rect id="Rectangle_176010" data-name="Rectangle 176010" width="115" height="115" transform="translate(6084 5543)" fill="#fff"/>
    </clipPath>
  </defs>
  <g id="Mask_Group_2594" data-name="Mask Group 2594" transform="translate(-6084 -5543)" clip-path="url(#clip-path)">
    <g id="Group_363127" data-name="Group 363127" transform="translate(769.082 -24.603)">
      <path id="Path_86972" data-name="Path 86972" d="M7514.329,2604.264v27.371l1.833,3.817,4.348,3.266,5.81,2.219,11.874,1.662,8.92-.811,6-1.732,5.413-1.338,4.063-3.266,2.885-3.817v-25.3h-3.763l-3.185,3.523-12.494,2.776-10.162.719-9.554-1.812-5.81-2.421-4.348-2.785Z" transform="translate(-2172.198 3018.777)" fill="#49d8fd"/>
      <ellipse id="Ellipse_3544" data-name="Ellipse 3544" cx="11.586" cy="6.207" rx="11.586" ry="6.207" transform="translate(5379.928 5589.719)" fill="#49d8fd"/>
      <path id="Path_86877" data-name="Path 86877" d="M3663.032,25.414c-6.876,0-12.263-3.5-12.263-7.961s5.387-7.961,12.263-7.961,12.263,3.5,12.263,7.961-5.386,7.961-12.263,7.961m0-13.269c-5.782,0-9.811,2.8-9.811,5.308s4.029,5.308,9.811,5.308,9.81-2.8,9.81-5.308-4.028-5.308-9.81-5.308" transform="translate(1728.865 5578.709)" fill="#022c33"/>
      <path id="Path_86878" data-name="Path 86878" d="M3651.814,155.245a11.467,11.467,0,0,1-1.045-4.5v-6.634h2.453v6.634a8.865,8.865,0,0,0,.729,3.2Z" transform="translate(1728.865 5481.247)" fill="#022c33"/>
      <path id="Path_86879" data-name="Path 86879" d="M3673.423,190.667a15.1,15.1,0,0,1-5.206-1.625l1.092-2.377a12.826,12.826,0,0,0,4.422,1.368Z" transform="translate(1715.868 5450.434)" fill="#022c33"/>
      <path id="Path_86880" data-name="Path 86880" d="M3523.9,103.336c-15.129,0-26.979-5.828-26.979-13.269S3508.773,76.8,3523.9,76.8a51,51,0,0,1,13.8,1.812l-.625,2.566a48.752,48.752,0,0,0-13.177-1.723c-14.672,0-24.526,5.489-24.526,10.615s9.854,10.615,24.526,10.615c9.409,0,18.167-2.5,22.312-6.366l1.6,2.008c-4.635,4.325-13.8,7.012-23.914,7.012" transform="translate(1843.469 5529.979)" fill="#022c33"/>
      <rect id="Rectangle_51109" data-name="Rectangle 51109" width="2.453" height="22.936" transform="translate(5345.297 5633.314)" fill="#022c33"/>
      <path id="Path_86881" data-name="Path 86881" d="M3523.9,104.68c-15.129,0-26.979-5.828-26.979-13.269V62.22h2.453V91.412c0,5.126,9.854,10.615,24.526,10.615s24.526-5.489,24.526-10.615V68.854c-6.876,0-12.263-3.5-12.263-7.961V38.336h2.453V60.893c0,2.51,4.028,5.308,9.811,5.308h2.452V91.412c0,7.44-11.85,13.269-26.979,13.269" transform="translate(1843.469 5557.825)" fill="#022c33"/>
      <path id="Path_86882" data-name="Path 86882" d="M3703.509,83.408l-.151-2.649c4.774-.317,8.659-2.681,8.659-5.27V38.336h2.453V75.489c0,4.166-4.609,7.5-10.961,7.919" transform="translate(1689.69 5557.825)" fill="#022c33"/>
    </g>
  </g>
</svg>
