<svg xmlns="http://www.w3.org/2000/svg" xmlns:xlink="http://www.w3.org/1999/xlink" width="115" height="115" viewBox="0 0 115 115">
  <defs>
    <clipPath id="clip-path">
      <rect id="Rectangle_176002" data-name="Rectangle 176002" width="115" height="115" transform="translate(5927 5754)" fill="#fff"/>
    </clipPath>
    <clipPath id="clip-path-2">
      <rect id="Rectangle_51160" data-name="Rectangle 51160" width="58.259" height="69.134" fill="#022c33"/>
    </clipPath>
  </defs>
  <g id="Mask_Group_2593" data-name="Mask Group 2593" transform="translate(-5927 -5754)" clip-path="url(#clip-path)">
    <g id="Group_363123" data-name="Group 363123" transform="translate(346.207 184.898)">
      <path id="Path_86998" data-name="Path 86998" d="M7825.438,2576.565h6.274l5.7,1.782,7.112,2.48,2.2,2.313-2.2,2.585-8.838,2.744-8.655,1.361-7.815-.625-6.625-1.872-4.958-1.609-3.284-2.585,3.284-3.43,6.308-2.257,5.274-.888Z" transform="translate(-2187.145 3023.677)" fill="#49d8fd"/>
      <path id="Path_86999" data-name="Path 86999" d="M7844.742,2595.223v31.125l-4.96,3.434-6.163,1.683-9.53.775-8.668-.775-8.971-2.685-3.8-2.431v-31.125l-6.241-5.283-.924,5.283v31.125l3.026,5.891,6.029,3.235,9.587,3.142h17.959l8.642-2.281,7.367-4.1,3.313-4.811v-38.294l-4.117,3.539Z" transform="translate(-2185.168 3020.871)" fill="#49d8fd"/>
      <g id="Group_46580" data-name="Group 46580" transform="translate(5609.164 5592.035)">
        <g id="Group_46579" data-name="Group 46579" transform="translate(0 0)" clip-path="url(#clip-path-2)">
          <path id="Path_86976" data-name="Path 86976" d="M29.249,29.249C12.847,29.249,0,22.825,0,14.624S12.847,0,29.249,0,58.5,6.424,58.5,14.624,45.651,29.249,29.249,29.249m0-26.59c-14.413,0-26.59,5.479-26.59,11.965S14.836,26.59,29.249,26.59s26.59-5.479,26.59-11.965S43.662,2.659,29.249,2.659" transform="translate(0 0)" fill="#022c33"/>
          <path id="Path_86977" data-name="Path 86977" d="M46.569,39.992c-13.821,0-22.043-5.026-22.577-7.718l-.052-.262.054-.262c.551-2.692,8.789-7.711,22.574-7.711,13.821,0,22.043,5.026,22.577,7.719l.052.262-.054.262c-.551,2.692-8.789,7.711-22.574,7.711M26.805,32.046c1.278,1.444,7.66,5.287,19.763,5.287,11.971,0,18.4-3.818,19.763-5.349C65.054,30.54,58.672,26.7,46.569,26.7c-11.971,0-18.4,3.819-19.763,5.349" transform="translate(-17.32 -17.391)" fill="#022c33"/>
          <path id="Path_86978" data-name="Path 86978" d="M152.991,178.175a27.163,27.163,0,0,0-4.9-1.814l.7-2.565a29.732,29.732,0,0,1,5.38,2Z" transform="translate(-107.141 -125.735)" fill="#022c33"/>
          <path id="Path_86979" data-name="Path 86979" d="M128.467,172.472c-1.268-.243-2.338-.4-3.693-.528l.257-2.646c1.441.14,2.581.3,3.936.562Z" transform="translate(-90.27 -122.481)" fill="#022c33"/>
          <path id="Path_86980" data-name="Path 86980" d="M101.327,170.987a50.443,50.443,0,0,0-5.051,0l-.127-2.656c1.818-.088,3.482-.088,5.305,0Z" transform="translate(-69.56 -121.734)" fill="#022c33"/>
          <path id="Path_86981" data-name="Path 86981" d="M71.64,172.449l-.506-2.61c1.33-.258,2.718-.461,4.126-.6l.267,2.646c-1.33.134-2.637.326-3.887.567" transform="translate(-51.463 -122.436)" fill="#022c33"/>
          <path id="Path_86982" data-name="Path 86982" d="M42.724,178.1l-1.187-2.378a28.873,28.873,0,0,1,5.452-2.02l.691,2.568a26.392,26.392,0,0,0-4.956,1.831" transform="translate(-30.051 -125.667)" fill="#022c33"/>
          <path id="Path_86983" data-name="Path 86983" d="M29.249,107.394C12.847,107.394,0,100.97,0,92.77V52.885H2.659V92.77c0,6.487,12.177,11.966,26.59,11.966s26.59-5.479,26.59-11.966V52.885H58.5V92.77c0,8.2-12.847,14.625-29.249,14.625" transform="translate(0 -38.261)" fill="#022c33"/>
          <rect id="Rectangle_51154" data-name="Rectangle 51154" width="2.659" height="8.61" transform="translate(6.648 14.624)" fill="#022c33"/>
          <rect id="Rectangle_51155" data-name="Rectangle 51155" width="2.659" height="6.648" transform="translate(6.648 29.249)" fill="#022c33"/>
          <rect id="Rectangle_51156" data-name="Rectangle 51156" width="2.659" height="6.648" transform="translate(6.648 38.555)" fill="#022c33"/>
          <path id="Path_86984" data-name="Path 86984" d="M30.165,184.774c-2.72-1.157-5.752-3.024-6.1-4.791l-.025-.259v-6.647H26.7v6.432a12.356,12.356,0,0,0,4.509,2.819Z" transform="translate(-17.391 -125.215)" fill="#022c33"/>
          <path id="Path_86985" data-name="Path 86985" d="M63.587,214.04a40.614,40.614,0,0,1-6.7-1.424l.784-2.542A37.9,37.9,0,0,0,63.93,211.4Z" transform="translate(-41.157 -151.981)" fill="#022c33"/>
          <path id="Path_86986" data-name="Path 86986" d="M95.158,218.641c-1.375,0-2.741-.049-4.06-.147l.195-2.651a54.047,54.047,0,0,0,7.536.013l.184,2.654c-1.254.087-2.551.131-3.855.131" transform="translate(-65.906 -156.155)" fill="#022c33"/>
          <path id="Path_86987" data-name="Path 86987" d="M129.844,214.861l-.327-2.638a34.651,34.651,0,0,0,5.053-.971l.691,2.568a37.106,37.106,0,0,1-5.417,1.041" transform="translate(-93.701 -152.833)" fill="#022c33"/>
          <rect id="Rectangle_51157" data-name="Rectangle 51157" width="2.659" height="8.61" transform="translate(49.191 14.624)" fill="#022c33"/>
          <rect id="Rectangle_51158" data-name="Rectangle 51158" width="2.659" height="6.648" transform="translate(49.191 29.249)" fill="#022c33"/>
          <rect id="Rectangle_51159" data-name="Rectangle 51159" width="2.659" height="6.648" transform="translate(49.191 38.555)" fill="#022c33"/>
          <path id="Path_86988" data-name="Path 86988" d="M157.92,185.33l-.909-2.5c3.625-1.318,5.4-2.836,5.772-3.376v-6.38h2.659l-.027,6.915c-.347,1.69-3.359,3.837-7.5,5.339" transform="translate(-113.592 -125.214)" fill="#022c33"/>
        </g>
      </g>
    </g>
  </g>
</svg>
