<svg xmlns="http://www.w3.org/2000/svg" xmlns:xlink="http://www.w3.org/1999/xlink" width="115" height="115" viewBox="0 0 115 115">
  <defs>
    <clipPath id="clip-path">
      <rect id="Rectangle_175995" data-name="Rectangle 175995" width="115" height="115" transform="translate(4748 6243)" fill="#fff"/>
    </clipPath>
    <clipPath id="clip-path-2">
      <rect id="Rectangle_51161" data-name="Rectangle 51161" width="76.951" height="61.03" fill="#022c33"/>
    </clipPath>
  </defs>
  <g id="Mask_Group_2588" data-name="Mask Group 2588" transform="translate(-4748 -6243)" clip-path="url(#clip-path)">
    <g id="Group_363114" data-name="Group 363114" transform="translate(3166.802 3690.902)">
      <path id="Path_87000" data-name="Path 87000" d="M7992.638,2594.465c-.756-.081-12.962-1.79-12.962-1.79l-10.059.951-10.894,2.806-4.2,3.552-4.129,3.622-1.216,5.4,1.891,5.99,6.36,4.279,6.753,3.118,8.238,1.705h14.35l5.869-1.705,2-11.214v-8.909Z" transform="translate(-6347.834 1.119)" fill="#49d8fd"/>
      <path id="Path_87001" data-name="Path 87001" d="M8010.171,2578.326l4.775,5.685,3.62,8.006,5.637,2.378,8.083,6.156s.612-2.464,0-3.03-2.637-6.992-2.637-6.992l-5.446-6.519-5.637-3.339-4.625-2.345Z" transform="translate(-6357.822 3.469)" fill="#49d8fd"/>
      <path id="Path_87002" data-name="Path 87002" d="M8032.528,2618.251l-4.221,4.081-4.833,2.494-5.393,1.991-2.035,5.688-6.064,8.885,6.753-1.935,7.669-5.084,4.95-6.654,3.174-5.387Z" transform="translate(-6357.791 -3.069)" fill="#49d8fd"/>
      <g id="Group_46582" data-name="Group 46582" transform="translate(1600.222 2579.083)">
        <g id="Group_46581" data-name="Group 46581" clip-path="url(#clip-path-2)">
          <path id="Path_86989" data-name="Path 86989" d="M168.269,61.03V58.377a27.861,27.861,0,1,0,0-55.723V0a30.515,30.515,0,0,1,0,61.03" transform="translate(-121.833)" fill="#022c33"/>
          <path id="Path_86990" data-name="Path 86990" d="M108.669,75.789l-2.651-.132a50.68,50.68,0,0,1,1.358-9.494l2.578.632a47.857,47.857,0,0,0-1.285,8.994" transform="translate(-76.761 -47.904)" fill="#022c33"/>
          <path id="Path_86991" data-name="Path 86991" d="M107.376,129.741a50.617,50.617,0,0,1-1.357-9.492l2.651-.132a47.828,47.828,0,0,0,1.285,8.992Z" transform="translate(-76.762 -86.969)" fill="#022c33"/>
          <path id="Path_86992" data-name="Path 86992" d="M117.72,172.711a29.013,29.013,0,0,1-2.42-5.376l2.5-.884a26.625,26.625,0,0,0,2.21,4.92Z" transform="translate(-83.482 -120.518)" fill="#022c33"/>
          <path id="Path_86993" data-name="Path 86993" d="M30.515,61.031a30.515,30.515,0,1,1,0-61.03c9.672,0,17.248,13.4,17.248,30.515S40.187,61.031,30.515,61.031m0-58.376a27.861,27.861,0,1,0,0,55.723c7.911,0,14.594-12.759,14.594-27.861S38.426,2.654,30.515,2.654" transform="translate(0 -0.001)" fill="#022c33"/>
          <path id="Path_86994" data-name="Path 86994" d="M218.141,85.76l-.759-2.542c8.8-2.624,14.262-7.494,14.262-12.709,0-5.232-5.489-10.108-14.326-12.727l.754-2.545C228.079,58.2,234.3,64.055,234.3,70.509c0,6.435-6.191,12.279-16.157,15.251" transform="translate(-157.347 -39.994)" fill="#022c33"/>
          <path id="Path_86995" data-name="Path 86995" d="M30.515,82.572C13.4,82.572,0,75,0,65.325S13.4,48.077,30.515,48.077a51.229,51.229,0,0,1,14.353,1.986l-.754,2.545a48.539,48.539,0,0,0-13.6-1.877c-15.1,0-27.862,6.683-27.862,14.594s12.76,14.594,27.862,14.594a48.285,48.285,0,0,0,13.6-1.885l.759,2.542a50.987,50.987,0,0,1-14.358,2" transform="translate(0 -34.81)" fill="#022c33"/>
          <path id="Path_86996" data-name="Path 86996" d="M144.851,61.03c-3.174,0-6.26-1.494-8.926-4.322l1.931-1.819c2.151,2.282,4.57,3.488,7,3.488,7.911,0,14.594-12.76,14.594-27.862S152.762,2.654,144.851,2.654c-2.425,0-4.844,1.206-7,3.488l-1.931-1.819C138.59,1.494,141.676,0,144.851,0,154.523,0,162.1,13.4,162.1,30.515S154.523,61.03,144.851,61.03" transform="translate(-98.415 0)" fill="#022c33"/>
          <path id="Path_86997" data-name="Path 86997" d="M117.8,38.131l-2.5-.886a33.7,33.7,0,0,1,2.451-5.431l2.306,1.314a31.212,31.212,0,0,0-2.257,5" transform="translate(-83.482 -23.034)" fill="#022c33"/>
        </g>
      </g>
    </g>
  </g>
</svg>
