<svg xmlns="http://www.w3.org/2000/svg" xmlns:xlink="http://www.w3.org/1999/xlink" width="115" height="115" viewBox="0 0 115 115">
  <defs>
    <clipPath id="clip-path">
      <rect id="Rectangle_176026" data-name="Rectangle 176026" width="115" height="115" transform="translate(4353 6260)" fill="#fff"/>
    </clipPath>
  </defs>
  <g id="Mask_Group_2598" data-name="Mask Group 2598" transform="translate(-4353 -6260)" clip-path="url(#clip-path)">
    <g id="Group_363134" data-name="Group 363134" transform="translate(-507.912 871.731)">
      <ellipse id="Ellipse_5733" data-name="Ellipse 5733" cx="34.099" cy="10.609" rx="34.099" ry="10.609" transform="translate(4884.207 5457.465)" fill="#4ad8fd"/>
      <g id="Group_310792" data-name="Group 310792" transform="translate(4884.207 5411.999)">
        <g id="Group_310793" data-name="Group 310793" transform="translate(0 0)">
          <path id="Path_381016" data-name="Path 381016" d="M2.781,45.15.7,43.876a7.684,7.684,0,0,1,.87-1.151L3.38,44.364A5.355,5.355,0,0,0,2.781,45.15Z" transform="translate(0.154 9.469)" fill="#424242"/>
          <path id="Path_381017" data-name="Path 381017" d="M4.494,44.447,3.106,42.437a19.719,19.719,0,0,1,2.255-1.329l1.107,2.178A17.277,17.277,0,0,0,4.494,44.447Zm58.024-.014a17.38,17.38,0,0,0-1.977-1.159l1.1-2.179A19.82,19.82,0,0,1,63.9,42.42Zm-53.91-2.11L7.7,40.055c.749-.3,1.552-.59,2.386-.862l.757,2.323C10.059,41.771,9.307,42.043,8.608,42.323Zm49.792-.01c-.7-.279-1.452-.55-2.236-.805l.755-2.323c.835.271,1.638.561,2.387.86ZM13.136,40.836,12.5,38.477c.783-.211,1.6-.412,2.438-.6l.532,2.385C14.671,40.442,13.885,40.635,13.136,40.836Zm40.733-.007c-.749-.2-1.535-.393-2.335-.572l.531-2.385c.835.186,1.655.386,2.438.6ZM17.833,39.784l-.442-2.4c.8-.147,1.63-.285,2.464-.41l.361,2.416C19.41,39.508,18.608,39.642,17.833,39.784Zm31.339-.005c-.775-.142-1.577-.275-2.384-.4l.36-2.416c.834.124,1.663.262,2.464.409Zm-26.557-.712-.288-2.426c.812-.1,1.646-.183,2.478-.258l.219,2.433C24.215,38.889,23.4,38.973,22.615,39.067Zm21.775,0c-.789-.093-1.6-.177-2.409-.25L42.2,36.38c.832.075,1.666.161,2.478.257Zm-16.949-.432-.153-2.438c.819-.052,1.655-.093,2.485-.124l.091,2.442C29.054,38.541,28.239,38.582,27.441,38.632Zm12.123,0c-.8-.05-1.613-.09-2.422-.12l.09-2.442c.83.031,1.666.072,2.485.123Zm-7.275-.179-.03-2.443c.824-.01,1.664-.01,2.488,0l-.03,2.443C33.912,38.441,33.093,38.441,32.288,38.451Z" transform="translate(0.688 7.978)"/>
          <path id="Path_381018" data-name="Path 381018" d="M53.707,45.15a5.366,5.366,0,0,0-.6-.789l1.816-1.634a7.768,7.768,0,0,1,.869,1.149Z" transform="translate(11.769 9.469)" fill="#424242"/>
          <path id="Line_5817" data-name="Line 5817" d="M1.443,54.973H-1V52.529H1.443Zm0-4.886H-1V47.643H1.443Zm0-4.886H-1V42.757H1.443Zm0-4.886H-1V37.87H1.443Zm0-4.886H-1V32.984H1.443Zm0-4.886H-1V28.1H1.443Zm0-4.886H-1V23.211H1.443Zm0-4.886H-1V18.324H1.443Zm0-4.886H-1V13.438H1.443Zm0-4.886H-1V8.551H1.443Zm0-4.886H-1V3.665H1.443Zm0-4.886H-1V0H1.443Z" transform="translate(33.984 1.222)"/>
          <path id="Path_381019" data-name="Path 381019" d="M34.205,68.41c-8.937,0-17.357-1.166-23.708-3.283a24.788,24.788,0,0,1-7.439-3.694C1.029,59.834,0,58.072,0,56.194a5.341,5.341,0,0,1,.8-2.772q.02-.038.043-.076L33.163.584a1.222,1.222,0,0,1,2.083,0L67.564,53.346q.023.038.043.077a5.35,5.35,0,0,1,.8,2.771c0,1.877-1.029,3.64-3.058,5.239a24.788,24.788,0,0,1-7.439,3.694C51.562,67.244,43.142,68.41,34.205,68.41ZM2.977,54.547q-.021.04-.045.079a2.968,2.968,0,0,0-.488,1.568c0,2.3,3.3,4.773,8.826,6.615,6.109,2.036,14.254,3.158,22.936,3.158s16.827-1.121,22.936-3.158c5.527-1.842,8.826-4.315,8.826-6.615a2.979,2.979,0,0,0-.489-1.569q-.024-.039-.045-.078L34.205,3.561Z" transform="translate(0 0)"/>
        </g>
      </g>
    </g>
  </g>
</svg>
