<svg xmlns="http://www.w3.org/2000/svg" xmlns:xlink="http://www.w3.org/1999/xlink" width="115" height="115" viewBox="0 0 115 115">
  <defs>
    <clipPath id="clip-path">
      <rect id="Rectangle_175994" data-name="Rectangle 175994" width="115" height="115" transform="translate(4409 6011)" fill="#fff"/>
    </clipPath>
  </defs>
  <g id="Mask_Group_2587" data-name="Mask Group 2587" transform="translate(-4409 -6011)" clip-path="url(#clip-path)">
    <g id="Group_363110" data-name="Group 363110" transform="translate(-507.36 438.503)">
      <path id="Path_86962" data-name="Path 86962" d="M7156.229,2569.59l-6.839-9.18-5.651,9.18,7.655,1.6Z" transform="translate(-2176.035 3025.877)" fill="#49d8fd"/>
      <path id="Path_86963" data-name="Path 86963" d="M7188.866,2641.072l-7.246,10.742H7192.7Z" transform="translate(-2180.274 3016.851)" fill="#49d8fd"/>
      <path id="Path_86964" data-name="Path 86964" d="M7111.221,2641.072l6.647,10.625H7107.8l2.053-8.083Z" transform="translate(-2172.013 3016.851)" fill="#49d8fd"/>
      <path id="Path_86965" data-name="Path 86965" d="M7146.838,2585.031h-6.022l-9.033,5.035-6.515,7.747-2.79,5.861-1.321,6.551v6.394l1.321,5.893,2.79,6.721,2.612,2.762,7.71-5.952-3.808-5.784-1.677-7.187.993-7.762,4.491-5.762,4.251-3.454,4.007-1.192h2.99Z" transform="translate(-2173.508 3023.122)" fill="#49d8fd"/>
      <path id="Path_86966" data-name="Path 86966" d="M7162.428,2627.758l5.151-7.8v-7.665l-2.555-8.192-5.45-5.4-5.033-2.155h-4.128v22.58Z" transform="translate(-2176.782 3021.833)" fill="#49d8fd"/>
      <path id="Path_86894" data-name="Path 86894" d="M2308.818,12.778h-11.844A2.062,2.062,0,0,1,2295,10.642a2.236,2.236,0,0,1,.39-1.253l5.941-8.571A1.907,1.907,0,0,1,2304.452.8l5.95,8.585a2.234,2.234,0,0,1,.39,1.253,2.062,2.062,0,0,1-1.974,2.136M2298.3,9.93h9.184L2302.9,3.306Z" transform="translate(2670.964 5585.036)" fill="#022c33"/>
      <path id="Path_86895" data-name="Path 86895" d="M2210.006,106.382l-1.483-2.353,30.25-22.3V38.337h2.632V83.23Z" transform="translate(2733.771 5558.053)" fill="#022c33"/>
      <path id="Path_86896" data-name="Path 86896" d="M2190.8,254.5h-9.212a2.062,2.062,0,0,1-1.974-2.136,2.589,2.589,0,0,1,.054-.492l2.666-10.065a1.99,1.99,0,0,1,1.885-1.546,1.907,1.907,0,0,1,1.584.883l6.6,10a2.238,2.238,0,0,1,.366,1.217,2.062,2.062,0,0,1-1.974,2.136m-8.338-2.848h7.045l-5.026-7.615Z" transform="translate(2754.766 5415.934)" fill="#022c33"/>
      <path id="Path_86936" data-name="Path 86936" d="M1.424.1,4.2,0,2.779,38.272,0,38.372Z" transform="translate(4972.234 5642.827) rotate(-55.728)" fill="#022c33"/>
      <path id="Path_86897" data-name="Path 86897" d="M2431.186,254.5h-9.212a2.062,2.062,0,0,1-1.974-2.136,2.234,2.234,0,0,1,.366-1.217l.008-.011,6.586-9.978a1.915,1.915,0,0,1,1.593-.9,1.983,1.983,0,0,1,1.883,1.535l2.647,9.978a3.687,3.687,0,0,1,.076.59,2.062,2.062,0,0,1-1.974,2.136m-7.919-2.848h7.047l-2.021-7.615Z" transform="translate(2580.179 5415.934)" fill="#022c33"/>
      <path id="Path_86898" data-name="Path 86898" d="M2274.962,145.514a17.353,17.353,0,0,1-8.5-2.247l1.216-2.525a14.879,14.879,0,0,0,7.288,1.924c8.708,0,15.792-7.665,15.792-17.087s-7.084-17.087-15.792-17.087-15.792,7.665-15.792,17.087a17.7,17.7,0,0,0,4.678,12.139l-1.853,2.022a20.64,20.64,0,0,1-5.457-14.161c0-10.992,8.265-19.934,18.424-19.934s18.424,8.942,18.424,19.934-8.265,19.935-18.424,19.935" transform="translate(2698.898 5510.679)" fill="#022c33"/>
      <path id="Path_86899" data-name="Path 86899" d="M2250.52,131.795c-15.238,0-27.636-13.414-27.636-29.9s12.4-29.9,27.636-29.9v2.848c-13.787,0-25,12.136-25,27.054s11.217,27.054,25,27.054,25-12.136,25-27.054c0-13.279-9.136-24.779-21.251-26.751l.391-2.817c13.392,2.18,23.492,14.891,23.492,29.568,0,16.487-12.4,29.9-27.635,29.9" transform="translate(2723.341 5534.366)" fill="#022c33"/>
    </g>
  </g>
</svg>
