<svg xmlns="http://www.w3.org/2000/svg" xmlns:xlink="http://www.w3.org/1999/xlink" width="889" height="889" viewBox="0 0 889 889">
  <defs>
    <clipPath id="clip-path">
      <rect id="Rectangle_176075" data-name="Rectangle 176075" width="889" height="889" transform="translate(6858 -1411)" fill="#fff" stroke="#707070" stroke-width="1"/>
    </clipPath>
    <clipPath id="clip-path-2">
      <rect id="Rectangle_175820" data-name="Rectangle 175820" width="606.415" height="58.19" fill="#fff"/>
    </clipPath>
  </defs>
  <g id="Mask_Group_2610" data-name="Mask Group 2610" transform="translate(-6858 1411)" clip-path="url(#clip-path)">
    <g id="Group_363215" data-name="Group 363215" transform="translate(11 -28)">
      <g id="Group_363214" data-name="Group 363214" transform="translate(6331.113 -1684)">
        <path id="Path_48950" data-name="Path 48950" d="M15.109,120.64,120.639,15.11a51.586,51.586,0,0,1,72.955,72.954L88.063,193.594A51.586,51.586,0,0,1,15.109,120.64" transform="translate(977.184 643.51)" fill="#fff"/>
        <rect id="Rectangle_23315" data-name="Rectangle 23315" width="306.224" height="103.172" rx="51.586" transform="translate(777.006 800.627) rotate(-45)" fill="#fff"/>
        <rect id="Rectangle_23316" data-name="Rectangle 23316" width="335.176" height="103.172" rx="51.586" transform="translate(734.115 662.412) rotate(-45)" fill="#fff"/>
      </g>
      <g id="Group_363213" data-name="Group 363213" transform="translate(6998.792 -748.766)">
        <path id="Path_422515" data-name="Path 422515" d="M0,.793V56.6H39.451V46.536h-27.5V33.568H37.883v-9.9H11.946V10.854h26.88V.793Z" transform="translate(0 0.383)" fill="#fff"/>
        <path id="Path_422516" data-name="Path 422516" d="M108.587.794V39.306L86.423.794h-13.2V56.6H85.17V19.42l22,37.176h13.361V.794Z" transform="translate(35.375 0.384)" fill="#fff"/>
        <g id="Group_362989" data-name="Group 362989" transform="translate(0 0)">
          <g id="Group_362988" data-name="Group 362988" clip-path="url(#clip-path-2)">
            <path id="Path_422517" data-name="Path 422517" d="M122.88,56.6V.794h20.041q9.352,0,14.534,4.48a15.538,15.538,0,0,1,5.191,12.418,17.474,17.474,0,0,1-2.358,9.235,15.135,15.135,0,0,1-6.759,5.932A25.072,25.072,0,0,1,142.92,34.9H129.637V56.6ZM129.639,28.3h13.283q6.285,0,9.47-2.67a9.774,9.774,0,0,0,3.184-7.938,9.353,9.353,0,0,0-3.181-7.706Q149.21,7.4,142.924,7.4H129.642Z" transform="translate(59.364 0.384)" fill="#fff"/>
            <path id="Path_422518" data-name="Path 422518" d="M153.865,56.6V.8H175A23.19,23.19,0,0,1,185.139,2.84,15.2,15.2,0,0,1,191.7,8.7a17.014,17.014,0,0,1,2.318,9,12.8,12.8,0,0,1-1.771,6.72,13.807,13.807,0,0,1-4.518,4.676,11.83,11.83,0,0,1-5.74,1.887l-.47-.707a12.551,12.551,0,0,1,8.055,2.358A10.379,10.379,0,0,1,193,40.173L194.57,56.6h-6.837l-1.415-15.721a6.854,6.854,0,0,0-2.477-5.109,11.73,11.73,0,0,0-7.033-1.651H160.625V56.6Zm6.76-29.081h15.248a11.922,11.922,0,0,0,8.093-2.594,9.261,9.261,0,0,0,2.988-7.387,9.356,9.356,0,0,0-3.066-7.506A13.27,13.27,0,0,0,175,7.4H160.616Z" transform="translate(74.334 0.382)" fill="#fff"/>
            <path id="Path_422519" data-name="Path 422519" d="M243.091,56.6V7.4h-17.37V.794h41.5V7.4H249.85V56.6Z" transform="translate(109.048 0.384)" fill="#fff"/>
            <path id="Path_422520" data-name="Path 422520" d="M385.512,56.6V.794h6.759V53.452l-3.381-3.457h31.282v6.6Z" transform="translate(186.244 0.384)" fill="#fff"/>
            <path id="Path_422521" data-name="Path 422521" d="M59.055,57.815a28.7,28.7,0,1,1,28.7-28.7v0a28.733,28.733,0,0,1-28.7,28.7m0-46.924A18.223,18.223,0,1,0,77.284,29.114,18.223,18.223,0,0,0,59.055,10.891" transform="translate(14.663 0.199)" fill="#fff"/>
            <path id="Path_422522" data-name="Path 422522" d="M369.389,57.567a28.624,28.624,0,1,1,28.624-28.624,28.624,28.624,0,0,1-28.624,28.624m0-51.492a22.864,22.864,0,1,0,22.865,22.864A22.864,22.864,0,0,0,369.389,6.075" transform="translate(164.627 0.155)" fill="#fff"/>
            <path id="Path_422523" data-name="Path 422523" d="M354.7,36.494a28.536,28.536,0,1,1,.018-15.857h-.349c-1.8,0-3.592-.006-5.39.006a.436.436,0,0,1-.482-.322,22.623,22.623,0,0,0-12.67-12.844,21.073,21.073,0,0,0-6.192-1.528,22.2,22.2,0,0,0-16.709,5.01,21.681,21.681,0,0,0-8,13.7,22.161,22.161,0,0,0,6.8,20.443A21.329,21.329,0,0,0,323.764,51a22.325,22.325,0,0,0,19.3-6.059,21.942,21.942,0,0,0,5.452-8.169.393.393,0,0,1,.423-.308c1.82.01,3.64,0,5.459.006.1,0,.2.016.3.025" transform="translate(144.329 0)" fill="#fff"/>
            <path id="Path_422524" data-name="Path 422524" d="M284.558.173a28.77,28.77,0,0,1,28.8,28.9c.1,16.035-13.32,28.63-28.823,28.612A28.757,28.757,0,1,1,284.558.173M261.8,26.693h45.5a22.854,22.854,0,0,0-45.5,0" transform="translate(123.573 0.084)" fill="#fff"/>
            <path id="Path_422525" data-name="Path 422525" d="M213.812,57.968a28.77,28.77,0,0,1-28.8-28.9c-.1-16.035,13.32-28.63,28.823-28.612a28.757,28.757,0,1,1-.022,57.513M236.57,31.449h-45.5a22.854,22.854,0,0,0,45.5,0" transform="translate(89.38 0.22)" fill="#fff"/>
          </g>
        </g>
      </g>
    </g>
  </g>
</svg>
