<svg xmlns="http://www.w3.org/2000/svg" xmlns:xlink="http://www.w3.org/1999/xlink" width="115" height="115" viewBox="0 0 115 115">
  <defs>
    <clipPath id="clip-path">
      <rect id="Rectangle_175978" data-name="Rectangle 175978" width="115" height="115" transform="translate(5255 6039)" fill="#fff"/>
    </clipPath>
  </defs>
  <g id="Mask_Group_2585" data-name="Mask Group 2585" transform="translate(-5255 -6039)" clip-path="url(#clip-path)">
    <g id="Group_363079" data-name="Group 363079" transform="translate(-193 467.191)">
      <path id="Path_86973" data-name="Path 86973" d="M7681.721,2576.57c.67-.011,27.854,0,27.854,0v31.963s-9.758,8.043-9.96,6.9,0-30.647,0-30.647h-27.661Z" transform="translate(-2175.629 3024.594)" fill="#49d8fd"/>
      <path id="Path_86974" data-name="Path 86974" d="M7653.728,2567.623l8.555,12.406-1.3,1.01h-3.746v44.571h40.844v-4.971l1.122-.907,12.077,10.281-12.077,10.042-1.122-3.2v-2.479h-45.9l-2.935-1.809v-51.53h-4.133l-1.352-1.01,8.42-12.406Z" transform="translate(-2171.983 3025.751)" fill="#49d8fd"/>
      <path id="Path_86874" data-name="Path 86874" d="M4036.642,89.83h-30.1v-32.8l11.182-9.074h30.1v32.8Zm-27.523-2.792h26.663l9.461-7.678V50.744H4018.58l-9.461,7.678Z" transform="translate(1487.473 5551.837)" fill="#022c33"/>
      <path id="Path_86875" data-name="Path 86875" d="M4041.02,108.905h-2.581V79.59h-27.093V76.8h29.674Z" transform="translate(1483.956 5531.367)" fill="#022c33"/>
      <path id="Path_86927" data-name="Path 86927" d="M.1.508,13.384,0l-.1,2.715L0,3.222Z" transform="translate(5522.525 5608.099) rotate(-36.859)" fill="#022c33"/>
      <path id="Path_86876" data-name="Path 86876" d="M3976.767,94.6a2.7,2.7,0,0,1-2.581-2.792V89.021h-45.155a4.043,4.043,0,0,1-3.871-4.188V35.975h-2.58a2.7,2.7,0,0,1-2.58-2.792,2.913,2.913,0,0,1,.522-1.644l7.761-11.2a2.477,2.477,0,0,1,4.066-.015l7.764,11.207a2.916,2.916,0,0,1,.528,1.65,2.7,2.7,0,0,1-2.58,2.792h-2.58V77.853h38.7V75.062a2.7,2.7,0,0,1,2.581-2.792,2.432,2.432,0,0,1,1.519.566l10.363,8.407a2.871,2.871,0,0,1,0,4.39l-10.357,8.4a2.435,2.435,0,0,1-1.525.571m-50.316-61.422h1.29v51.65a1.347,1.347,0,0,0,1.29,1.4h47.736v5.584l10.284-8.376-10.307-8.363.023,5.572H3932.9V33.183h5.161L3930.3,22.015l-7.7,11.192Z" transform="translate(1550.79 5572.19)" fill="#022c33"/>
    </g>
  </g>
</svg>
